<svg xmlns="http://www.w3.org/2000/svg" xmlns:xlink="http://www.w3.org/1999/xlink" version="1.1" id="Layer_1" x="0px" y="0px" width="100px" height="100px" viewBox="0 0 100 100" enable-background="new 0 0 100 100" xml:space="preserve">
<path fill="#000000" d="M97.942,75.222c-0.389-0.301-49.533-27.235-49.98-27.425l27.422,50c0.055-7.521,0.01-15.046,0.021-22.568  C82.917,75.219,90.431,75.229,97.942,75.222z"/>
<path d="M50.752,61.202c-1.783,0.636-3.694,1.001-5.693,1.001c-9.374,0-17-7.626-17-17s7.626-17,17-17s17,7.626,17,17  c0,1.844-0.305,3.615-0.85,5.278c1.68,0.918,3.473,1.899,5.335,2.918c0.975-2.548,1.515-5.31,1.515-8.196c0-12.682-10.317-23-23-23  s-23,10.318-23,23c0,12.682,10.317,23,23,23c3.044,0,5.95-0.6,8.612-1.679L50.752,61.202z"/>
<path d="M60.429,78.847c-4.685,2.148-9.888,3.356-15.37,3.356c-20.402,0-37.001-16.598-37.001-37c0-20.402,16.599-37,37.001-37  s37,16.598,37,37c0,5.322-1.139,10.382-3.171,14.959c1.797,0.985,3.567,1.957,5.273,2.895c2.495-5.442,3.897-11.485,3.897-17.854  c0-23.71-19.29-43-43-43c-23.711,0-43.001,19.29-43.001,43c0,23.71,19.29,43,43.001,43c6.527,0,12.716-1.469,18.263-4.082  L60.429,78.847z"/>
</svg>