<svg xmlns="http://www.w3.org/2000/svg" xmlns:xlink="http://www.w3.org/1999/xlink" version="1.1" id="Layer_1" x="0px" y="0px" width="100px" height="100px" viewBox="0 0 100 100" style="enable-background:new 0 0 100 100;" xml:space="preserve">
<path d="M88.222,34.495c-0.913-1.409-1.659-3.634-1.659-4.945c0-1.311-1.07-3.246-2.375-4.299L71.201,14.778  c-1.306-1.054-3.19-1.916-4.187-1.916s-2.883-0.857-4.194-1.906l-4.771-3.815c-1.311-1.049-3.755-1.906-5.434-1.906h-0.429  c-1.679,0-4.082,0.908-5.341,2.019l-7.963,7.023c-1.259,1.11-3.636,2.281-5.284,2.601l-0.875,0.17  c-1.647,0.321-4.216,1.211-5.708,1.979l-1.249,0.642c-1.492,0.767-3.379,2.596-4.192,4.063L14.807,35.94  c-0.813,1.467-1.343,4.034-1.176,5.705l1.109,11.091c0.167,1.67-0.606,4.065-1.718,5.322l-4.729,5.346  c-1.112,1.256-1.051,3.256,0.136,4.443l1.216,1.216c1.187,1.187,3.128,1.187,4.315,0l0.262-0.262  c1.186-1.187,3.53-2.158,5.208-2.158h3.433c1.679,0,2.624-1.305,2.102-2.9c0,0-6.106-18.65-4.771-22.083s3.813-16.974,15.829-17.927  c12.015-0.954,13.358,1.829,13.358,1.829c0.729,1.512,0.24,3.587-1.088,4.614c0,0-1.781,1.377,4.703,4.238  c6.484,2.86,6.484,1.525,6.484,1.525c0-1.679,1.31-3.464,2.91-3.97c0,0,0.714-0.226,0.523,1.872  c-0.19,2.097-5.147,10.109-10.869,8.964c-5.721-1.144-9.44-3.512-9.44-3.512c-1.417-0.9-2.618-2.925-2.67-4.499  c-0.053-1.573-1.231-2.088-2.619-1.145c0,0-2.245,1.526,0.998,6.294c3.243,4.768,6.915,14.316,6.915,14.316  c0.602,1.566,1.578,1.563,2.169-0.009l4.175-4.277c0.995-1.351,2.522-1.284,3.395,0.149l5.556,3.002  c1.32,1.037,3.45,2.769,4.735,3.849c0,0,6.049,5.091,6.049,6.235c0,1.145-8.01,7.628-9.345,8.2  c-1.335,0.572-11.157-0.477-12.777,1.145c-1.578,1.578-16.078,15.651-16.078,15.651c-1.204,1.169-1.219,3.096-0.032,4.283  l1.637,1.638c1.187,1.187,3.128,1.187,4.315,0l10.731-10.732c1.187-1.187,3.519-2.341,5.182-2.565l7.434-1.001  c1.663-0.225,4.167-1.169,5.563-2.101l0.644-0.429c1.396-0.931,3.509-2.664,4.696-3.85L89.843,56.88  C91.029,55.693,92,53.349,92,51.67v-8.296c0-1.679-0.747-4.204-1.659-5.613L88.222,34.495z M55.688,22.649  c-1.244,1.125-3.541,1.543-5.101,0.927l-3.53-2.467c-1.463-0.824-1.849-2.607-0.86-3.963c0,0,4.049-5.545,5.193-4.782  c1.145,0.762,6.866,4.705,7.121,6.103S55.688,22.649,55.688,22.649z M59.529,26.221c-1.33-0.489-1.721-2.075-0.872-3.522  c0,0,1.889-3.217,4.304-3.217c2.416,0,7.374,4.449,5.975,6.484c-1.398,2.034-2.171,5.086-5.79,2.67  C59.529,26.221,59.529,26.221,59.529,26.221z M59.401,43.894c3.942-3.306,9.73-11.843,9.73-11.843  c0.942-1.388,2.464-3.676,3.38-5.081c0,0,0.239-0.367,2.147,1.031c1.907,1.398,3.13,3.671,3.13,3.671  c0.795,1.477,0.779,3.886-0.039,5.352L66.292,48.509c-1.133,1.238-3.333,1.734-4.887,1.104C61.406,49.612,55.46,47.2,59.401,43.894z   M76.184,58.515c-1.144,0-7.775-4.704-7.003-5.594c0.774-0.89,10.877-11.52,10.877-11.52c1.156-1.217,3.381-1.71,4.943-1.098  c0,0,0.719,0.283,0.846,4.733C85.975,49.489,77.329,58.515,76.184,58.515z"/>
</svg>